1.9Hzhigh3min_grf.mot
version=1
nRows=15
nColumns 19
inDegrees=yes
endheader
time	1_ground_force_vx	1_ground_force_vy	1_ground_force_vz	1_ground_force_px	1_ground_force_py	1_ground_force_pz	1_ground_torque_x	1_ground_torque_y	1_ground_torque_z	2_ground_force_vx	2_ground_force_vy	2_ground_force_vz	2_ground_force_px	2_ground_force_py	2_ground_force_pz	2_ground_torque_x	2_ground_torque_y	2_ground_torque_z
            1.253500	            0.869997	            5.588404	            0.021800	           -0.233013	            0.005581	           -0.255695	            0.504028	           -0.157768	            0.298187	            0.648971	            1.667402	           -2.153058	           -0.232311	            0.006130	           -0.833667	           -0.506808	           -0.142681	           -0.264193
            1.254000	            0.869868	            5.048000	           -0.072231	           -0.233013	            0.005581	           -0.255695	            0.470732	           -0.102317	            0.298526	            0.509148	            1.482244	           -2.012871	           -0.232311	            0.006130	           -0.833667	           -0.544258	           -0.189676	           -0.377447
            1.254500	            0.456679	            5.229169	           -0.299713	           -0.233013	            0.005581	           -0.255695	            0.442715	           -0.120846	            0.243321	            0.270369	            2.769433	           -1.726603	           -0.232311	            0.006130	           -0.833667	           -0.488030	           -0.151729	           -0.358486
            1.255000	            0.595070	            4.867288	            0.019391	           -0.233013	            0.005581	           -0.255695	            0.448188	           -0.130255	            0.305539	            0.182007	            1.295740	           -1.684892	           -0.232311	            0.006130	           -0.833667	           -0.337639	           -0.161244	           -0.188932
            1.255500	            0.595247	            5.768027	            0.160823	           -0.233013	            0.005581	           -0.255695	            0.479216	           -0.250247	            0.267319	            0.088992	            1.111086	           -1.638581	           -0.232311	            0.006130	           -0.833667	           -0.469358	           -0.104869	           -0.226374
            1.256000	            0.641189	            5.227239	            0.158391	           -0.233013	            0.005581	           -0.255695	            0.629973	           -0.222870	            0.363027	            0.089678	            0.926771	           -1.592310	           -0.232311	            0.006130	           -0.833667	           -0.506961	           -0.104735	           -0.301759
            1.256500	            0.686609	            5.047768	           -0.025920	           -0.233013	            0.005581	           -0.255695	            0.468503	           -0.240567	            0.177332	            0.556080	            1.481744	           -1.825179	           -0.232311	            0.006130	           -0.833667	           -0.487981	           -0.152133	           -0.245385
            1.257000	            0.641563	            5.046383	            0.295186	           -0.233013	            0.005581	           -0.255695	            0.548750	           -0.157532	            0.213130	            0.320481	            1.849362	           -1.870693	           -0.232311	            0.006130	           -0.833667	           -0.468939	           -0.227552	           -0.283363
            1.257500	            0.778394	            4.506989	           -0.028466	           -0.233013	            0.005581	           -0.255695	            0.450204	           -0.111363	            0.238254	            0.272925	            2.033676	           -1.963872	           -0.232311	            0.006130	           -0.833667	           -0.450205	           -0.208713	           -0.245603
            1.258000	            0.870032	            4.146672	           -0.076095	           -0.233013	            0.005581	           -0.255695	            0.584091	           -0.139511	            0.354512	            0.228213	            1.479890	           -1.637327	           -0.232311	            0.006130	           -0.833667	           -0.487793	           -0.208714	           -0.283287
            1.258500	            0.869394	            5.769653	           -0.206707	           -0.233013	            0.005581	           -0.255695	            0.551286	           -0.194821	            0.316702	            0.038114	            2.216142	           -1.728475	           -0.232311	            0.006130	           -0.833667	           -0.431659	           -0.142477	           -0.245375
            1.259000	            0.274265	            5.587896	            0.114991	           -0.233013	            0.005581	           -0.255695	            0.462719	           -0.278533	            0.347553	           -0.099134	            1.295060	           -1.778629	           -0.232311	            0.006130	           -0.833667	           -0.394139	           -0.132754	           -0.283057
            1.259500	            0.319866	            5.047697	           -0.025009	           -0.233013	            0.005581	           -0.255695	            0.524920	           -0.240967	            0.217946	            0.089616	            0.927273	           -1.733094	           -0.232311	            0.006130	           -0.833667	           -0.431812	           -0.104531	           -0.282940
            1.260000	            0.640653	            5.047956	           -0.071662	           -0.233013	            0.005581	           -0.255695	            0.527083	           -0.167196	            0.307133	            0.182151	            1.294569	           -1.356395	           -0.232311	            0.006130	           -0.833667	           -0.431505	           -0.189606	           -0.283244
            1.260500	            0.687146	            5.227051	            0.204133	           -0.233013	            0.005581	           -0.255695	            0.477549	           -0.129959	            0.252969	            0.413598	            2.033179	           -1.682363	           -0.232311	            0.006130	           -0.833667	           -0.431412	           -0.208713	           -0.226761
